<svg version="1.2" xmlns="http://www.w3.org/2000/svg" viewBox="0 0 150 48" width="150" height="48">
	<style>
		.s0 { fill: #944a4b } 
	</style>
	<path id="Stop it, Blog!" class="s0" aria-label="Stop it, Blog!"  d="m11.2 25.8q0 0.6-0.1 1.1-0.1 0.5-0.1 1.1-0.1-0.1-0.2-0.1-0.1-0.1-0.2-0.1-0.1 0-0.2 0.1-0.1 0.1-0.1 0.2 0 0.1 0.1 0.2 0.1 0 0.3 0 0.1 0 0.1 0 0 0.1 0 0.3-0.1 0.1-0.2 0.2-0.1 0.1-0.2 0.3-0.1 0.1-0.2 0.2-0.1 0-0.2 0.1 0 0.2-0.1 0.3-0.1 0.1-0.2 0.2-0.1 0-0.2 0-0.1 0-0.2 0-0.1-0.1-0.2-0.1-0.1 0-0.1 0.2 0 0.1 0 0.2v0.1q0 0.1-0.3 0.2-0.2 0-0.5 0.2-0.3 0-0.7 0.2-0.3 0.1-0.5 0.1-0.5 0.2-0.9 0.4-0.5 0.1-1 0.1-0.4 0-0.7-0.1-0.3-0.1-0.7-0.2-0.3-0.1-0.6-0.2-0.3-0.1-0.7-0.1-0.1 0-0.4 0-0.2 0.1-0.3 0.1-0.1 0.1-0.1 0.2-0.1 0.1-0.2 0.1 0 0-0.1 0-0.1-0.1-0.2-0.1-0.2-0.1-0.4-0.3-0.2-0.2-0.3-0.5-0.1-0.2-0.2-0.5 0-0.3 0-0.5 0-0.2 0-0.4 0.1-0.2 0.1-0.4 0-0.2-0.1-0.5 0-0.2 0-0.5 0-0.1 0-0.3 0.1-0.2 0.1-0.4 0-0.1-0.1-0.3-0.1-0.1-0.1-0.2 0-0.1 0.1-0.2 0.1 0 0.1-0.1 0-0.2 0-0.3 0-0.1 0-0.3 0 0 0-0.1 0-0.2 0-0.3 0-0.1 0.1-0.2 0-0.1 0.1-0.1 0.2 0 0.4 0.3 0.2 0.2 0.4 0.5 0.2 0.4 0.3 0.7 0.1 0.3 0.1 0.5 0 0-0.1 0.1 0 0-0.1 0 0.1 0.1 0.1 0.2 0.1 0.2 0.1 0.3 0 0.1-0.1 0.2 0 0.1 0 0.3 0 0.1 0 0.2 0.1 0.1 0.2 0.2 0 0.1 0.1 0.2 0.1 0 0.1 0 0.1 0.1 0.2 0.1 0.1 0 0.3 0 0.2 0.3 0.4 0.6 0.3 0.2 0.6 0.5 0.5 0.1 1 0.1 0.5 0.1 1 0.1 0.4 0 0.7-0.1 0.3-0.1 0.5-0.2 0.3-0.2 0.5-0.3 0.3-0.2 0.5-0.4 0.2-0.1 0.4-0.2 0.2-0.2 0.4-0.3 0.2-0.1 0.4-0.3 0.2-0.1 0.3-0.3 0.1-0.2 0.2-0.3 0.2-0.1 0.2-0.3 0-0.1-0.1-0.1 0-0.3 0-0.7 0-0.3-0.1-0.6 0-0.4-0.1-0.5-0.1-0.2-0.3-0.3-0.2-0.1-0.4-0.2-0.2-0.1-0.4-0.3-0.2-0.2-0.4-0.3-0.3 0-0.6 0-0.2-0.1-0.5-0.1-0.3 0-0.5-0.2-0.1 0-0.1 0-0.1 0-0.2 0-0.1 0.1-0.2 0.1-0.2 0-0.3-0.1-0.2 0-0.4 0-0.1-0.1-0.3-0.2-0.2 0-0.3 0-0.2-0.1-0.4-0.1-0.1 0-0.2 0-0.1 0-0.3-0.1-0.1-0.1-0.3-0.2-0.6-0.3-1.2-0.5-0.1-0.3-0.3-0.6-0.1-0.1-0.3-0.2-0.1 0-0.2-0.1 0-0.1-0.2-0.4-0.1-0.3-0.2-0.6 0-0.3-0.1-0.6-0.1-0.2-0.1-0.3 0-0.3 0.1-0.5 0-0.2 0.2-0.4 0 0 0.1-0.1 0 0 0-0.1 0 0 0-0.1-0.1 0-0.1-0.1 0 0 0 0 0 0 0-0.1 0.1-0.2 0.2-0.4 0.2-0.2 0.4-0.4 0.2-0.2 0.4-0.4 0.2-0.1 0.4-0.3 0.1-0.1 0.2-0.2 0.1-0.2 0.3-0.2 0 0 0.1 0 0.1-0.1 0.2-0.1 0.1 0 0.1 0.1 0.1 0 0.2 0 0.1-0.1 0.1-0.1 0.1-0.1 0.1-0.2 0.1 0 0.1 0 0.1-0.1 0.3-0.1 0.1 0 0.2 0 0.2 0 0.3 0 0.4 0 0.8 0 0.4 0 0.8 0 0.3 0 0.6 0 0.3 0 0.6 0.1 0.2 0 0.4 0.1 0.2 0 0.4 0 0.2 0 0.2-0.1 0.1 0 0.2-0.1 0-0.1 0.1-0.2 0.1-0.1 0.2-0.1 0.2 0 0.5 0.2 0.2 0.1 0.5 0.1l-0.1 0.1q0 0.1 0 0.2 0 0.2 0.1 0.4 0 0.1 0.1 0.3 0.1 0.2 0.1 0.4 0.1 0.1 0.1 0.3 0 0.1 0 0.2-0.1 0.1-0.1 0.3 0 0.2 0.1 0.3 0.1 0.1 0.1 0.1 0 0.1-0.1 0.2 0 0 0 0.2 0 0.2 0 0.5 0 0.3 0 0.6 0 0.1 0 0.3 0 0.1 0 0.3-0.1 0.2-0.1 0.4-0.1 0.1-0.3 0.1-0.1 0-0.3-0.1-0.1-0.1-0.2-0.3-0.2-0.1-0.3-0.3 0-0.2-0.1-0.4 0-0.2-0.1-0.3 0-0.2-0.1-0.4-0.2-0.2-0.4-0.5-0.1-0.2-0.3-0.5-0.1-0.2-0.2-0.3-0.1 0-0.2-0.1-0.1 0-0.2 0-0.1 0-0.3 0-0.2-0.1-0.4-0.1-0.2-0.1-0.4-0.1-0.1-0.1-0.3-0.2-0.2 0-0.4 0-0.4 0-0.7 0.1-0.3 0.1-0.6 0.2-0.4 0.2-0.7 0.3-0.3 0.2-0.6 0.3-0.3 0.6-0.3 1.2 0 0.5 0.2 0.8 0.1 0.3 0.2 0.5 0.2 0.2 0.5 0.4 0.2 0.1 0.5 0.3 0.3 0.2 0.6 0.3 0.2 0 0.6 0 0.2 0 0.3 0 0.2 0 0.4 0 0.2 0 0.4 0 0.2 0.1 0.4 0.2 0.1 0 0.3 0.1 0.2 0 0.4 0 0.2 0 0.4 0 0.1 0 0.3 0 0.2 0 0.3 0.1 0.1 0 0.2 0.1 0.1 0.1 0.3 0.2 0.1 0.1 0.2 0.1 0.3 0.1 0.4 0.2 0.1 0.1 0.2 0.2 0.2 0.1 0.3 0.2 0.1 0.1 0.2 0.3 0.1 0.2 0.3 0.4 0.2 0.2 0.3 0.4 0.1 0 0.1 0.1 0 0.1 0 0.2 0 0.1 0.1 0.2 0 0.1 0.1 0.1 0.1 0.1 0.1 0.2 0 0.1 0 0.2zm11.8 1.6q0 0.3-0.1 0.6-0.1 0.3-0.2 0.6-0.1 0.3-0.2 0.6-0.1 0.3-0.1 0.7-0.1 0.5-0.4 0.9-0.3 0.3-0.7 0.5-0.4 0.2-0.9 0.3-0.5 0.1-1.1 0.2-0.5 0-1 0.1-0.5 0-1 0-0.1-0.1-0.3-0.2-0.1-0.2-0.2-0.3-0.1-0.1-0.2-0.2-0.1-0.1-0.3-0.1-0.1 0-0.1-0.1 0-0.2-0.1-0.4 0-0.3 0-0.4-0.1-0.2-0.1-0.2-0.3 0-0.4-0.1-0.2-0.1-0.3-0.3 0-0.2-0.1-0.4 0-0.2 0-0.4 0-0.1-0.1-0.2 0-0.2-0.1-0.3-0.1-0.1-0.2-0.2 0-0.2 0-0.3 0-0.2 0-0.4 0-0.3 0-0.5 0-0.3 0.1-0.5 0-0.3 0-0.4 0-0.2 0-0.4 0.1-0.1 0.1-0.2 0.1-0.1 0.2-0.2 0 0 0-0.1 0-0.2-0.1-0.2 0-0.1 0-0.2 0-0.1 0.1-0.2 0-0.2 0.1-0.3 0.1-0.4 0.1-0.9 0-0.1 0-0.2 0-0.1 0-0.2-0.3-0.2-0.6-0.2-0.3-0.1-0.6-0.1-0.3 0-0.6-0.1-0.3 0-0.5-0.2-0.1-0.2-0.3-0.3-0.1-0.2-0.3-0.3-0.2-0.1-0.3-0.1-0.1-0.1-0.1-0.3 0-0.3 0.2-0.4 0.2-0.1 0.4-0.2 0.2-0.1 0.4-0.2 0.3 0 0.4-0.1 0.2-0.2 0.4-0.2 0.1 0 0.2 0.1 0.1 0 0.2 0 0.3 0 0.4-0.1 0.2-0.1 0.3-0.3 0.1-0.1 0.2-0.3 0-0.2 0-0.5 0-0.3 0-0.7-0.1-0.3-0.1-0.6 0-0.4 0.1-0.7 0.1-0.4 0.4-0.7 0.1 0 0.2-0.1 0.1-0.1 0.1-0.2 0.1 0 0.2-0.1 0.1-0.1 0.2-0.1 0.1 0 0.1 0.1 0.1 0 0.1 0 0.3 0.3 0.3 0.4 0.1 0.1 0.1 0.3 0 0 0 0.1 0 0.1 0 0.3 0 0.4 0.1 0.7 0.1 0.3 0.1 0.6 0 0.2-0.1 0.3-0.1 0.2-0.1 0.4 0 0.2 0.1 0.3 0.1 0.1 0.1 0.3 0.1 0.1 0.2 0.2 0.1 0.1 0.1 0.3 0.1 0.1 0.5 0.1 0.4 0.1 0.8 0.1 0.5 0 1 0.1 0.5 0 0.8 0 0.3 0 0.4 0 0.2 0.1 0.3 0.1 0.1 0.1 0.2 0.1 0 0.1 0.2 0.1 0.2 0 0.3 0.1 0.1 0.1 0.1 0.3 0 0.2-0.1 0.4-0.2 0.1-0.4 0.2-0.2 0.1-0.4 0.1-0.2 0-0.4 0-0.3 0-0.6 0-0.4 0-0.7 0-0.5 0-0.9 0.1-0.4 0-0.8 0.3-0.3 0.2-0.4 0.6-0.2 0.3-0.2 0.9 0 0.5 0.1 1.1 0 0.5 0 1 0 0.6 0 0.9 0.1 0.3 0.2 0.5 0.1 0.3 0.2 0.7 0.1 0.4 0.2 0.8 0.2 0.3 0.4 0.6 0.3 0.2 0.7 0.2 0.2 0 0.5 0 0.2-0.1 0.5-0.2 0.3-0.1 0.5-0.2 0.2-0.2 0.2-0.4 0-0.2-0.1-0.3-0.1-0.2-0.1-0.4 0-0.2 0-0.3 0.1-0.1 0.2-0.2 0.1-0.1 0.2-0.2 0.2 0 0.3-0.1 0.2-0.2 0.5-0.4 0.2-0.2 0.6-0.2 0.2 0 0.4 0.1 0.2 0.1 0.4 0.2 0 0.2 0 0.4zm12.6-0.9q0 0.1-0.1 0.3 0 0.1-0.1 0.2 0 0.1-0.1 0.2 0 0 0 0 0 0.2 0.1 0.3 0 0.1 0 0.2 0 0.1 0 0.1-0.1 0-0.1 0-0.1 0-0.2 0 0 0.2 0 0.4 0.1 0.2 0.1 0.4 0 0.3-0.1 0.4 0 0.1-0.1 0.1-0.1 0-0.1 0.1-0.1 0-0.1 0.2 0 0.1-0.1 0.2-0.2 0.2-0.4 0.3-0.1 0.2-0.4 0.3-0.2 0.1-0.3 0.1 0 0 0 0 0 0.1 0 0.1 0 0.1 0 0.2 0 0.2-0.1 0.2-0.1 0.1-0.2 0.1-0.2 0.1-0.3 0.2-0.2 0.2-0.4 0.3-0.2 0.2-0.4 0.3-0.2 0.1-0.4 0.1-0.2 0-0.3-0.1-0.1-0.1-0.3-0.1-0.2 0-0.3 0.1-0.2 0-0.3 0.1-0.1 0-0.2 0.1-0.1 0-0.2 0-0.3 0-0.6-0.1-0.3-0.1-0.5-0.2-0.2-0.1-0.4-0.1-0.1 0-0.3-0.1-0.2 0-0.3-0.1-0.2 0-0.3-0.2-0.2-0.3-0.5-0.4-0.3-0.2-0.6-0.4-0.3-0.1-0.6-0.3-0.3-0.2-0.5-0.5-0.2-0.2-0.4-0.5-0.2-0.2-0.4-0.5-0.2-0.3-0.3-0.6-0.1-0.3-0.1-0.6 0-0.2 0-0.4 0.1-0.2 0.1-0.4 0.1-0.3 0.1-0.5 0.1-0.2 0.1-0.4v-0.1q0 0-0.1-0.1 0 0-0.1-0.1 0 0 0-0.1-0.1 0-0.1 0 0 0 0 0 0-0.1 0.1-0.3 0-0.2 0.1-0.4 0-0.2 0.1-0.4 0.1-0.2 0.1-0.2 0.1-0.1 0.2-0.1 0-0.1 0-0.2 0-0.1 0-0.2 0-0.1 0-0.2 0-0.1 0-0.1 0.1-0.1 0.1-0.1 0.1 0 0.1 0 0.1 0 0.1-0.1 0.1-0.2 0.2-0.3 0.1-0.2 0.2-0.3 0.1-0.2 0.3-0.3 0.1-0.1 0.3-0.2 0.2-0.1 0.4-0.3 0.1-0.1 0.3-0.2 0.2-0.2 0.4-0.3 0.1-0.1 0.4-0.1 0.2 0 0.5-0.1 0.3-0.1 0.6-0.1 0.4-0.1 0.9-0.2 0.4 0 0.9 0 0.2 0 0.6 0.1 0.3 0 0.7 0.2 0.4 0.1 0.7 0.3 0.4 0.1 0.5 0.3 0 0.2 0 0.3-0.1 0.2-0.1 0.3 0 0 0 0.1 0 0 0.1 0 0.1 0 0.3-0.1 0.2 0 0.4 0 0 0.2 0.1 0.2 0.2 0.1 0.3 0.2 0.1 0 0.3 0.2 0.1 0.2 0.2 0.4 0.1 0.2 0.2 0.4 0.1 0.2 0.1 0.3 0.1 0.1 0.2 0.3 0.1 0.2 0.1 0.4 0.1 0.2 0.1 0.4 0 0.2 0 0.3 0 0.2-0.1 0.4 0 0.1-0.1 0.2-0.1 0.2-0.2 0.3-0.1 0.1-0.1 0.2 0 0.1 0 0.1 0.1 0.1 0.1 0.1 0 0 0.1 0 0.1 0 0.1 0v-0.1q0 0-0.1-0.1-0.1-0.1-0.1-0.2 0 0 0.1-0.1 0 0 0 0 0.1 0 0.1 0.1 0.1 0 0.2 0.1 0 0.1 0.1 0.2 0 0.1 0 0 0 0.1 0 0.1 0 0.1 0 0.1zm-1.1 0.1q0-0.2-0.1-0.2-0.1-0.1-0.3-0.1-0.2 0-0.3 0-0.2 0-0.2-0.2v-0.1q0-0.2-0.1-0.5-0.1-0.3-0.2-0.7 0-0.3-0.1-0.6-0.1-0.3-0.2-0.6-0.1-0.2-0.2-0.4 0-0.1 0-0.1-0.1 0-0.2 0-0.1 0-0.3-0.1-0.1-0.1-0.3-0.1-0.2-0.1-0.4-0.2-0.2-0.1-0.6-0.1-0.5 0-0.9 0-0.5-0.1-0.9-0.1-0.6 0-1.2 0.3-0.5 0.2-0.9 0.7-0.4 0.4-0.6 1-0.3 0.6-0.3 1.1 0 0.3 0.1 0.6 0 0.3 0 0.6 0.1 0.3 0.2 0.6 0.1 0.3 0.2 0.4v0.3q0.1 0.1 0.1 0.1 0.1 0 0.2 0 0.1 0 0.1 0 0.1 0 0.1 0.1 0.1 0.4 0.4 0.6 0.2 0.2 0.5 0.3 0.2 0.2 0.5 0.3 0.2 0.2 0.5 0.5 0-0.1 0.1-0.1 0.1 0 0.2 0 0.4 0 0.7 0.1 0.3 0 0.7 0 0.3 0 0.6-0.2 0.3-0.1 0.5-0.4 0.2-0.2 0.3-0.3 0.1-0.2 0.2-0.3 0.1-0.1 0.2-0.2 0.2-0.1 0.4-0.2 0-0.1 0.1-0.1 0.1-0.1 0.2-0.2 0.1 0 0.2-0.1 0-0.1 0-0.2 0-0.1 0-0.2 0-0.1 0-0.2 0-0.1 0-0.2 0-0.2 0.1-0.3 0.1-0.2 0.2-0.2 0.1-0.1 0.2-0.1 0.2 0 0.3 0 0.1 0.1 0.2 0.1 0-0.1 0-0.1zm14.2-0.6q0 0.4-0.1 0.9-0.1 0.4-0.2 0.9 0 0.1 0 0.2 0 0.2 0 0.3-0.1 0.1-0.1 0.2-0.1 0.1-0.2 0.2-0.1 0.2-0.2 0.4 0 0.1-0.1 0.3 0 0.2-0.1 0.3-0.1 0.1-0.2 0.1-0.1 0.1-0.2 0.2-0.1 0-0.2 0.1-0.1 0.1-0.1 0.2 0 0.1 0 0.1 0 0.1-0.1 0.2 0 0-0.1 0.1-0.2 0-0.3 0.1 0 0.1-0.2 0.2-0.1 0.2-0.3 0.3-0.2 0.1-0.4 0.2-0.2 0.1-0.4 0.1-0.2 0.1-0.4 0.1-0.2 0-0.4-0.1-0.2 0-0.4 0-0.1 0-0.2 0 0 0.1-0.1 0.1 0 0-0.1 0.1 0 0-0.1 0-0.2 0-0.6-0.1-0.3-0.2-0.7-0.3-0.4-0.2-0.8-0.4-0.4-0.1-0.6-0.1-0.1 0-0.2 0.1-0.1 0.1-0.2 0.3-0.1 0.2-0.1 0.4 0 0.2 0 0.4 0 0.2 0 0.4 0 0.1 0 0.1 0 0.1-0.1 0.1 0 0.1-0.1 0.1 0 0 0 0-0.1-0.1-0.1-0.1 0 0.2 0 0.3 0.1 0.2 0.1 0.3 0.1 0.2 0.2 0.4 0 0.1 0.1 0.3 0 0.3 0.1 0.5 0.1 0.1 0.2 0.2 0.2 0 0.4 0 0.2 0 0.5 0 0.1 0.1 0.3 0.1 0.1 0 0.3 0.1 0.1 0.1 0.2 0.2 0.1 0.1 0.1 0.3 0 0.4-0.3 0.5-0.2 0.2-0.5 0.2-0.4 0-0.9-0.1-0.4-0.1-0.9-0.1-0.5 0-0.9 0.1-0.5 0-1 0-0.1 0-0.3 0-0.2-0.1-0.4-0.1-0.2-0.1-0.4-0.2-0.2-0.1-0.2-0.3 0-0.1 0.2-0.2 0.1-0.1 0.2-0.1 0.2-0.1 0.3-0.1 0.2-0.1 0.3-0.1 0.2 0 0.3 0 0.2-0.1 0.4-0.1 0.1-0.1 0.3-0.2 0.1 0 0.3 0 0.1-0.4 0.1-0.8 0.1-0.5 0.1-0.9 0-0.2 0-0.5 0-0.3 0-0.6 0-0.6 0-1.1 0.1-0.6 0.1-1.2 0-0.3 0-0.7 0-0.3 0-0.7-0.1 0-0.1-0.3-0.1-0.2-0.1-0.5 0-0.3-0.1-0.6 0-0.2 0-0.3 0-0.1 0.1-0.2 0-0.1 0-0.2 0.1-0.1 0.1-0.1 0.1-0.1 0.1-0.1 0 0-0.1-0.1 0-0.1-0.1-0.2 0 0 0-0.2 0-0.1 0-0.2 0-0.3 0-0.7 0.1-0.3 0.1-0.7 0-0.4-0.3-0.8-0.2-0.1-0.3-0.2-0.1-0.1-0.2-0.1-0.1-0.1-0.2-0.1-0.1 0-0.4-0.1-0.1 0-0.3 0-0.2-0.1-0.4-0.2-0.2-0.1-0.4-0.2-0.1-0.1-0.1-0.2 0-0.2 0.1-0.3 0.2-0.2 0.4-0.3 0.3 0 0.5-0.1 0.3 0 0.4 0 0.1 0 0.3 0 0.2 0 0.3 0.1 0.1-0.1 0.3-0.1 0.1-0.1 0.3-0.1 0.5 0 0.7 0.2 0.3 0.1 0.4 0.3 0.2 0.2 0.2 0.3 0.1 0.1 0.3 0.1 0.1 0 0.1 0 0.1 0 0.2-0.1 0.2-0.1 0.7-0.2 0.5-0.2 1-0.3 0.5-0.2 1-0.3 0.4-0.1 0.7-0.1 0.1 0 0.3 0.1 0.2 0 0.5 0.1 0.3 0.1 0.6 0.3 0.3 0.1 0.5 0.2 0.3 0.1 0.4 0.3 0.2 0.1 0.3 0.2 0.1 0.2 0.2 0.3 0.2 0.2 0.4 0.2 0.1 0.1 0.1 0.2 0 0.1 0 0.2v0.2q0 0.2 0.1 0.4 0.1 0.1 0.2 0.2 0 0 0.1 0.1 0.1 0.1 0.1 0.2 0 0.1 0 0.1-0.1 0.1-0.1 0.2 0 0.1 0.1 0.3 0.1 0.2 0.1 0.4 0.1 0.1 0.2 0.4 0.1 0.2 0.1 0.5zm-5-4.6q0-0.1-0.1-0.1 0-0.1-0.1-0.1-0.1 0-0.1 0.1 0 0.2 0 0.2 0 0 0 0 0 0 0 0v0.1q0.1 0 0.2-0.1 0.1 0 0.1-0.1zm3.7 4.9q0-0.3-0.1-0.6-0.1-0.3-0.2-0.6-0.1-0.3-0.3-0.6-0.2-0.2-0.3-0.5-0.1-0.1-0.1-0.1 0-0.1 0-0.2 0-0.1 0-0.2 0 0-0.1-0.1-0.1-0.1-0.1-0.1-0.1 0-0.2 0-0.1-0.1-0.1-0.1-0.1 0-0.2-0.2-0.1-0.1-0.2-0.2-0.2-0.1-0.4-0.2-0.2-0.1-0.4-0.2-0.2-0.1-0.3-0.1-0.3 0-0.5 0.1-0.2 0.1-0.4 0.1-0.2 0-0.3-0.1-0.1 0-0.2-0.1-0.1 0-0.3-0.1-0.1 0-0.2 0h-0.1q0.1 0.1 0.1 0.1 0 0.1-0.1 0.2 0 0.1-0.1 0.1-0.1 0-0.2 0.1 0 0-0.1 0.1-0.1 0.1-0.1 0.2 0 0.1-0.1 0.1-0.1 0-0.1 0 0 0.1-0.1 0.1 0 0-0.1 0.1 0 0-0.1 0 0 0-0.1 0.1-0.1 0-0.2 0.2-0.1 0.1-0.2 0.3-0.1 0.3-0.2 0.6 0 0.3-0.1 0.5 0 0.3 0 0.5-0.1 0.3-0.1 0.4 0 0.4 0.1 0.8 0 0.3 0 0.7 0 0.3 0 0.6 0 0.3 0 0.6 0.2 0.3 0.5 0.6 0.2 0.3 0.5 0.5 0.3 0.2 0.6 0.4 0.4 0.1 0.8 0.2 0.2 0 0.4 0 0.1 0 0.3 0.1 0.2 0 0.4 0.1 0.1 0 0.3 0 0.2 0 0.4-0.1 0.1 0 0.3-0.1 0.2-0.2 0.4-0.3 0.1-0.1 0.2-0.2 0.1-0.1 0.2-0.2 0.2 0 0.3-0.1 0-0.1 0-0.1 0.1-0.1 0.1-0.2 0-0.1 0-0.1 0.1-0.1 0.2-0.1 0.2-0.2 0.2-0.2 0.1 0 0.1-0.2v-0.2q0-0.1 0-0.1 0.1-0.1 0.2-0.1 0-0.1 0.1-0.2 0 0 0-0.2 0-0.2 0-0.3 0-0.1 0-0.3 0-0.1 0-0.2 0.1-0.2 0.1-0.3 0.1-0.1 0.1-0.2 0.1-0.1 0.1-0.2zm16.1-8.6q0 0.3-0.1 0.7-0.1 0.3-0.3 0.6-0.2 0.2-0.5 0.4-0.2 0.2-0.6 0.2-0.2 0-0.5-0.1-0.4-0.1-0.7-0.2-0.3-0.1-0.5-0.3-0.2-0.3-0.2-0.5 0-0.3 0-0.6 0.1-0.2 0.1-0.5 0.1-0.1 0.2-0.2 0.1-0.2 0.2-0.3 0.1-0.1 0.2-0.3 0.1-0.1 0.2-0.1 0.1 0 0.3-0.1 0.2 0 0.3 0 0.3 0 0.6 0.1 0.3 0.1 0.6 0.3 0.3 0.2 0.5 0.4 0.2 0.3 0.2 0.5zm5.3 13.1q0 0.2-0.1 0.3-0.1 0.2-0.2 0.3-0.1 0.1-0.3 0.2-0.1 0.1-0.3 0.1-0.1 0-0.1 0 0 0-0.1-0.1-0.2-0.2-0.4-0.2-0.2 0-0.4 0-0.3-0.1-0.5-0.2-0.2-0.1-0.3-0.3-0.1-0.2-0.2-0.3-0.1 0-0.3 0-0.5 0-0.9 0.1-0.5 0.2-0.9 0.4-0.4 0.2-0.9 0.3-0.4 0.2-0.9 0.2-0.2 0-0.5-0.1-0.2 0-0.5-0.1 0 0-0.1 0-0.1 0-0.1 0-0.1 0-0.2 0-0.1 0-0.1 0 0 0-0.1 0.1-0.2 0-0.2 0l0.1 0.1q-0.1 0.1-0.3 0.2-0.2 0.1-0.5 0.2-0.3 0-0.5 0.1-0.3 0-0.4 0-0.3 0-0.6-0.1-0.2-0.1-0.4-0.4-0.1-0.1-0.2-0.2-0.1-0.1-0.2-0.2-0.1-0.1-0.2-0.3-0.1-0.1-0.1-0.2 0-0.2 0.2-0.3 0.2-0.1 0.4-0.2 0.3-0.1 0.5-0.1 0.2 0 0.4 0 0.2 0 0.5 0.1 0.3 0 0.5 0 0.3 0 0.5 0 0.2-0.1 0.4-0.1 0.2 0 0.4 0 0.2 0.1 0.5 0.1 0.2 0 0.5-0.1 0.2-0.1 0.4-0.3 0.1-0.5 0.1-1 0.1-0.6 0.1-1.1 0-0.5-0.1-1-0.1-0.6-0.1-1.1 0 0 0 0 0.1 0 0.1 0 0-0.1 0-0.1 0.1 0 0.1 0 0-0.3-0.1-0.5-0.1-0.2-0.1-0.4 0-0.3 0.1-0.6 0.1-0.2 0.1-0.5 0-0.2-0.1-0.4-0.1-0.2-0.2-0.4-0.2-0.1-0.4-0.2-0.2-0.1-0.4-0.1-0.2 0-0.4 0.1-0.2 0-0.5 0.1-0.2 0.1-0.5 0.1-0.2 0.1-0.5 0.1-0.3 0-0.6-0.1-0.3 0-0.6-0.1-0.2 0-0.4 0-0.2 0-0.3-0.1-0.2 0-0.3-0.2-0.1-0.1-0.1-0.3 0-0.3 0.1-0.5 0.1-0.2 0.3-0.3 0.2-0.1 0.5-0.2 0.2 0 0.5 0 0.4 0 0.8 0 0.4-0.1 0.8-0.1 0.5 0 1 0.1 0.5 0 1 0 0.4 0 0.7 0.1 0.3 0.2 0.6 0.4 0.2 0.2 0.4 0.5 0.1 0.4 0.1 0.8 0 0.3-0.1 0.6-0.1 0.2-0.3 0.5 0 0.1 0.1 0.1 0.1 0.1 0.2 0.1 0 0.1 0.1 0.1 0 0.1 0 0.2 0 0.1 0 0.2 0.1 0.2 0.2 0.2 0 0.5 0 1.1 0 0.6 0 1.1 0 0.5 0 1 0 0.5 0 1 0.1 0.3 0.2 0.4 0.2 0.2 0.5 0.2 0.5 0 1-0.1 0.4-0.1 0.9-0.1 0.3 0 0.6 0.1 0.2 0.2 0.5 0.3 0.2 0.2 0.4 0.3 0.2 0.2 0.4 0.2 0.1 0 0.2 0 0 0.1 0 0.2 0.1 0.1 0.1 0.1 0 0.1 0 0.2zm10.3-3.4q0 0.3-0.1 0.6-0.1 0.3-0.2 0.6-0.1 0.3-0.2 0.6-0.1 0.3-0.1 0.7-0.1 0.5-0.4 0.9-0.3 0.3-0.7 0.5-0.4 0.2-1 0.3-0.5 0.1-1 0.2-0.5 0-1.1 0.1-0.5 0-0.9 0-0.2-0.1-0.3-0.2-0.1-0.2-0.2-0.3-0.1-0.1-0.2-0.2-0.1-0.1-0.3-0.1-0.1 0-0.1-0.1-0.1-0.2-0.1-0.4 0-0.3-0.1-0.4 0-0.2-0.1-0.2-0.2 0-0.4-0.1-0.1-0.1-0.2-0.3-0.1-0.2-0.1-0.4 0-0.2 0-0.4 0-0.1-0.1-0.2-0.1-0.2-0.1-0.3-0.1-0.1-0.2-0.2 0-0.2 0-0.3 0-0.2 0-0.4 0-0.3 0-0.5 0-0.3 0-0.5 0.1-0.3 0.1-0.4 0-0.2 0-0.4 0.1-0.1 0.1-0.2 0.1-0.1 0.1-0.2 0.1 0 0.1-0.1 0-0.2-0.1-0.2 0-0.1 0-0.2 0-0.1 0-0.2 0.1-0.2 0.2-0.3 0.1-0.4 0.1-0.9 0-0.1 0-0.2 0-0.1 0-0.2-0.3-0.2-0.6-0.2-0.3-0.1-0.6-0.1-0.3 0-0.6-0.1-0.3 0-0.5-0.2-0.1-0.2-0.3-0.3-0.1-0.2-0.3-0.3-0.2-0.1-0.3-0.1-0.1-0.1-0.1-0.3 0-0.3 0.2-0.4 0.1-0.1 0.4-0.2 0.2-0.1 0.4-0.2 0.2 0 0.4-0.1 0.2-0.2 0.4-0.2 0.1 0 0.2 0.1 0.1 0 0.2 0 0.2 0 0.4-0.1 0.2-0.1 0.3-0.3 0.1-0.1 0.1-0.3 0.1-0.2 0.1-0.5 0-0.3-0.1-0.7 0-0.3 0-0.6 0-0.4 0.1-0.7 0.1-0.4 0.4-0.7 0.1 0 0.2-0.1 0-0.1 0.1-0.2 0.1 0 0.2-0.1 0.1-0.1 0.2-0.1 0.1 0 0.1 0.1 0.1 0 0.1 0 0.3 0.3 0.3 0.4 0.1 0.1 0.1 0.3 0 0 0 0.1 0 0.1 0 0.3 0 0.4 0.1 0.7 0.1 0.3 0.1 0.6 0 0.2-0.1 0.3-0.1 0.2-0.1 0.4 0 0.2 0.1 0.3 0 0.1 0.1 0.3 0.1 0.1 0.2 0.2 0.1 0.1 0.1 0.3 0.1 0.1 0.5 0.1 0.3 0.1 0.8 0.1 0.5 0 1 0.1 0.4 0 0.8 0 0.2 0 0.4 0 0.1 0.1 0.2 0.1 0.2 0.1 0.2 0.1 0.1 0.1 0.3 0.1 0.1 0 0.3 0.1 0.1 0.1 0.1 0.3 0 0.2-0.1 0.4-0.2 0.1-0.4 0.2-0.2 0.1-0.4 0.1-0.2 0-0.4 0-0.4 0-0.7 0-0.3 0-0.6 0-0.5 0-0.9 0.1-0.5 0-0.8 0.3-0.3 0.2-0.5 0.6-0.1 0.3-0.1 0.9 0 0.5 0 1.1 0.1 0.5 0.1 1 0 0.6 0 0.9 0 0.3 0.2 0.5 0.1 0.3 0.2 0.7 0.1 0.4 0.2 0.8 0.1 0.3 0.4 0.6 0.2 0.2 0.7 0.2 0.2 0 0.4 0 0.3-0.1 0.6-0.2 0.3-0.1 0.5-0.2 0.2-0.2 0.2-0.4 0-0.2-0.2-0.3-0.1-0.2-0.1-0.4 0-0.2 0.1-0.3 0.1-0.1 0.2-0.2 0.1-0.1 0.2-0.2 0.2 0 0.3-0.1 0.2-0.2 0.4-0.4 0.3-0.2 0.6-0.2 0.3 0 0.5 0.1 0.2 0.1 0.3 0.2 0.1 0.2 0.1 0.4zm6.9 1.6q-0.1 0.2-0.2 0.4-0.1 0.2-0.1 0.5 0 0 0 0.1 0 0 0 0.1 0 0.2-0.1 0.3-0.1 0.2-0.1 0.4-0.1 0.2-0.2 0.3 0 0.2 0 0.4-0.2 0.2-0.4 0.3 0 0.1 0 0.3 0 0.1 0 0.3 0 0.2-0.1 0.3-0.2 0.1-0.3 0.1-0.1 0.1-0.3 0.2-0.1 0-0.1 0.2 0 0.1-0.1 0.3-0.1 0.1-0.3 0.3-0.1 0.2-0.2 0.3-0.2 0.2-0.2 0.3-0.2 0.2-0.3 0.4-0.1 0.1-0.3 0.3-0.1 0.1-0.3 0.2-0.2 0.1-0.5 0.1-0.1 0-0.3 0.1-0.1 0-0.2 0-0.2 0-0.4-0.1-0.1-0.1-0.1-0.2-0.1-0.2-0.1-0.3-0.1-0.1-0.2-0.2 0 0-0.1 0-0.1-0.1-0.1-0.1 0-0.1 0.1-0.2 0.1-0.1 0.1-0.2 0-0.1 0-0.2 0-0.1 0-0.1 0.1 0 0.2-0.1 0.1 0 0.1 0 0.1-0.1 0.2-0.2 0-0.2 0.2-0.4 0.2-0.1 0.4-0.3 0.3-0.1 0.5-0.2 0.2-0.2 0.4-0.4 0.2-0.2 0.4-0.4 0.1-0.3 0.1-0.6 0-0.1 0-0.1 0-0.1 0-0.2 0-0.1 0-0.2 0-0.1 0-0.1-0.2 0-0.4 0.1-0.2 0.1-0.4 0.1-0.1 0-0.3-0.2-0.2-0.1-0.4-0.3-0.2-0.2-0.4-0.3-0.2-0.2-0.3-0.3v-0.2-0.1q0-0.4-0.1-0.8 0-0.4 0-0.8 0-0.3 0-0.5 0.1-0.2 0.2-0.4 0.1-0.1 0.1-0.3 0.1-0.1 0.1-0.3 0.1 0 0.2 0 0 0 0.1 0 0.1-0.1 0.2-0.2 0.1 0 0.2-0.1 0.1-0.1 0.1-0.1 0.1-0.1 0.2-0.1 0.2 0 0.3 0 0.1 0 0.2 0 0.2-0.1 0.3-0.1 0.1 0 0.2-0.1 0.1 0 0.3 0 0.2 0 0.5 0 0.2 0.1 0.5 0.1 0.1 0.1 0.1 0.2 0 0.1 0.1 0.2 0 0.1 0.1 0.2 0.1 0 0.2 0 0.1 0 0.1 0 0 0 0 0 0 0.1-0.1 0.3-0.1 0.1-0.1 0.2 0 0.1 0.1 0.3 0.1 0.1 0.2 0.1 0.1 0 0.2 0 0-0.1 0.1-0.1 0 0 0 0.1 0.1 0 0.1 0.1 0 0 0 0.1 0.1 0 0.1 0 0 0.2-0.1 0.2-0.1 0.1-0.2 0.1 0 0.1 0.1 0.1 0.1 0.1 0.2 0.1 0.1 0 0.1 0.1 0.1 0 0.1 0.2 0 0.1 0 0.2-0.1 0.1-0.1 0.2 0 0.1 0.1 0.2 0 0.1 0.1 0.1zm20-2.2q0 0 0 0.2 0 0.1 0 0.2 0 0.1 0 0.2 0 0.1-0.1 0.2-0.1 0.1-0.2 0.1-0.1 0-0.2 0-0.1 0-0.2 0.1-0.2 0-0.3 0 0.1 0.1 0.1 0.2 0.1 0 0.2 0 0.1 0 0.2 0.1 0.1 0 0.1 0.2 0 0.2-0.1 0.3-0.1 0.2-0.2 0.3-0.1 0.1-0.2 0.2-0.1 0.1-0.1 0.3-0.1 0.2-0.2 0.3-0.1 0.1-0.2 0.1-0.1 0.1-0.2 0.1-0.2 0.1-0.3 0.2-0.1 0.2-0.2 0.2 0 0 0-0.1-0.1 0-0.2 0 0 0-0.1 0.1 0 0 0 0.1 0 0 0 0 0 0 0 0-0.1 0.1-0.4 0.3-0.4 0.1-0.8 0.3-0.5 0.1-0.9 0.2-0.5 0.1-0.9 0.1-0.8 0-1.5-0.1-0.7 0-1.5 0h-1.4q0 0-0.1 0.1-0.1 0-0.1 0-0.2 0-0.4 0-0.1 0-0.3-0.1-0.2-0.1-0.4-0.2-0.1-0.1-0.1-0.3 0 0 0 0 0-0.1 0-0.1 0.1-0.3 0.3-0.5 0.2-0.2 0.4-0.3 0.2-0.1 0.4-0.2 0.2-0.1 0.4-0.3 0.2-0.2 0.3-0.6 0.1-0.4 0.1-1 0-0.5-0.1-1.1-0.1-0.5-0.1-1.1 0-1 0.1-2 0-1.1 0-2.1v-1.7q0-0.2 0-0.6 0-0.4-0.1-0.7-0.1-0.3-0.3-0.5-0.2-0.3-0.5-0.3-0.2 0-0.5-0.1-0.2-0.1-0.4-0.2-0.2-0.2-0.4-0.4-0.1-0.1-0.1-0.4 0-0.1 0.1-0.3 0.1-0.1 0.2-0.2 0.2 0 0.4-0.1 0.1 0 0.3 0 0.3 0 0.7 0.1 0.3 0 0.7 0 0.4 0 0.9 0 0.4-0.1 0.9-0.1 0.4-0.1 0.9-0.1 0.4-0.1 0.9-0.1 0.4 0 0.7 0.1 0.4 0 0.8 0 0.1 0.1 0.2 0.1 0.2 0.1 0.4 0.1 0.2 0.1 0.4 0.1 0.1 0 0.2 0.1 0.3 0 0.5 0.1 0.2 0 0.3 0.1 0.2 0.1 0.3 0.3 0.1 0.2 0.2 0.4 0 0 0.1 0.1 0.1 0.1 0.2 0.1 0.1 0.1 0.2 0.2 0.1 0 0.2 0.1 0.1 0.1 0.2 0.4 0.2 0.3 0.3 0.6 0.1 0.3 0.2 0.6 0.1 0.4 0.1 0.5 0 0.4-0.1 0.8-0.1 0.4-0.3 0.8 0 0.2-0.2 0.4-0.1 0.3-0.3 0.5-0.1 0.2-0.2 0.4-0.1 0.2-0.1 0.4 0 0.4 0.1 0.7 0.2 0.3 0.3 0.6 0.1 0.1 0.2 0.3 0.1 0.1 0.2 0.2 0.1 0.1 0.2 0.2 0.1 0.2 0.2 0.3 0.1 0.3 0.2 0.7 0 0.4 0 0.8zm-2.1-6.6q0-0.1 0-0.3 0-0.2-0.1-0.3 0-0.2-0.1-0.3 0-0.2 0-0.3-0.1-0.2-0.1-0.3-0.1-0.1-0.2-0.2-0.1-0.1-0.2-0.1-0.1-0.1-0.2-0.2-0.3-0.2-0.5-0.4-0.3-0.1-0.5-0.2-0.3-0.1-0.6-0.1-0.3 0-0.7 0-0.2 0-0.5 0-0.2 0-0.4 0.1-0.1 0-0.1 0 0 0.1 0 0.1-0.1 0-0.2 0.1-0.1 0-0.3 0-0.3 0-0.5 0.1-0.2 0-0.3 0.2-0.1 0.2-0.2 0.4 0 0.2 0 0.5 0 0.3-0.1 0.7 0 0.4 0 0.8 0 0.3-0.1 0.7-0.1 0.3-0.3 0.7 0.7 0.1 1.3 0.2 0.6 0.1 1.2 0.1 0.5 0 0.9 0 0.4-0.1 0.8-0.2 0.2 0 0.4-0.1 0.3-0.1 0.5-0.2 0.3-0.1 0.5-0.3 0.2-0.1 0.2-0.3 0-0.1 0.1-0.2 0-0.2 0.1-0.2 0.1-0.2 0.2-0.3 0-0.1 0-0.2zm0.4 7.2q0-0.3-0.1-0.6 0-0.3-0.1-0.6 0-0.2-0.1-0.4 0-0.1 0-0.2-0.1-0.1-0.2-0.2-0.1-0.2-0.3-0.3-0.1-0.3-0.1-0.3-0.1 0-0.2 0 0 0-0.1 0 0 0-0.1 0l-0.1-0.3q-0.2-0.2-0.4-0.3-0.2 0-0.4 0-0.2-0.1-0.4-0.1-0.3-0.1-0.5-0.1-0.1 0-0.1 0.1-0.1 0.1-0.1 0.1-0.1 0-0.2-0.1-0.1 0-0.2 0-0.1-0.1-0.2-0.1-0.1 0-0.2 0-0.4 0-0.9 0.1-0.5 0.1-0.9 0.2-0.1 0.2-0.2 0.5-0.1 0.3-0.1 0.6-0.1 0.2-0.2 0.5 0 0.3 0 0.5 0 0.1 0 0.2 0 0.1 0.1 0.1 0 0.1 0 0.1 0.1 0.1 0.1 0.2 0 0.4-0.1 0.8-0.1 0.4-0.1 0.9 0 0.2 0 0.5 0.1 0.2 0.3 0.5 0.2 0 0.4 0 0.2 0.1 0.4 0.1 0.2 0 0.3-0.1 0.2 0 0.3 0 0.1 0 0.1 0 0 0.1 0.2 0.1 0 0 0.1-0.1 0.1 0 0.2 0 0.1 0 0.3 0 0.1 0 0.2 0 0.3 0 0.4 0 0.1 0 0.3 0 0.4-0.1 0.8-0.3 0.4-0.1 0.7-0.3 0.4-0.1 0.6-0.4 0.1-0.1 0.3-0.3 0.1-0.1 0.2-0.3 0.1-0.2 0.2-0.4 0.1-0.2 0.1-0.3zm14.8 3.2q0 0.4-0.3 0.6-0.2 0.3-0.6 0.4-0.4 0.1-0.8 0.1-0.3 0-0.6 0-0.4 0-0.6 0-0.2-0.1-0.4-0.1-0.2-0.1-0.3-0.2-0.1 0-0.3 0-0.2 0-0.4 0-0.1 0.1-0.3 0.1-0.2 0-0.2-0.1-0.1 0-0.2-0.1 0 0-0.1-0.1 0 0-0.1 0-0.1 0-0.1 0.1 0 0-0.1 0.1-0.1 0.1-0.2 0.1-0.1 0.1-0.3 0.1-0.2 0-0.4-0.1-0.2 0-0.5 0-0.2 0-0.4 0.1-0.2 0-0.4 0-0.1 0-0.2 0 0-0.1-0.1-0.1-0.1 0-0.3 0.1-0.2 0.1-0.4 0.1-0.2 0-0.3 0-0.1-0.1-0.2-0.1-0.2 0-0.3 0.1-0.2 0.1-0.5 0.1-0.1 0-0.4 0-0.4 0-0.7-0.1-0.4 0-0.6-0.1-0.3-0.1-0.3-0.2 0-0.3 0.1-0.6 0.1-0.2 0.1-0.5-0.1 0-0.2-0.2 0.1 0 0.1 0 0-0.1 0.1-0.1 0.1 0 0.1 0 0-0.1 0-0.1v-0.1q0.5 0.1 0.9 0.1 0.4 0 0.9 0 0.4 0 0.9 0 0.5-0.1 1-0.2 0.4-0.1 0.7-0.4 0.3-0.2 0.3-0.7v-0.1-0.2q0-1.1-0.1-2.3-0.1-1.1-0.1-2.3 0-0.3 0-0.6-0.1-0.3-0.1-0.6 0-0.4 0.2-0.8 0.1-0.4 0.4-0.6 0-0.1 0-0.1-0.1 0-0.2 0 0 0-0.1-0.1 0 0-0.1 0 0 0-0.1-0.1 0-0.2 0-0.3 0-0.1 0-0.3-0.1-0.1-0.1-0.2 0-0.3 0.1-0.6 0.1-0.3 0.1-0.6 0-0.2-0.1-0.4 0-0.1-0.1-0.2-0.1-0.1-0.2-0.1 0-0.1 0-0.2 0-0.1 0-0.2h-0.1q-0.1 0-0.1 0.1-0.1 0-0.1 0.1-0.1 0.1-0.1 0.1-0.1 0.1-0.2 0.1 0 0-0.1-0.1-0.2 0.1-0.4 0.1-0.4 0-0.8-0.1-0.3-0.1-0.7-0.1-0.2 0-0.4 0-0.2 0-0.4 0-0.3 0-0.6-0.1-0.3 0-0.5-0.2v-0.2q0-0.5 0.4-0.8 0.4-0.3 1-0.3 0.3 0 0.7 0.1 0.4 0.1 0.8 0.1 0.2 0 0.4-0.1 0.2 0 0.5-0.1 0.2 0 0.4-0.1 0.3 0 0.5 0 0.4 0 0.7 0.2 0.4 0.1 0.7 0.3 0 0.1 0 0.2 0.1 0.1 0.1 0.2 0.1 0.1 0.1 0.1 0.1 0.1 0.1 0.2 0 0.1 0 0.2-0.1 0.1-0.1 0.2 0 0.2 0.1 0.4 0.1 0.3 0.1 0.5 0 0.3 0 0.5-0.1 0.3-0.1 0.5 0 0.3 0.1 0.6 0.1 0.4 0.1 0.7 0 0.2-0.1 0.5-0.1 0.2-0.1 0.5 0 0.1 0 0.3 0.1 0.2 0.2 0.4 0 0.1 0.1 0.3 0 0.2 0 0.4v0.2q0 0.2 0 0.3 0 0.2-0.1 0.3 0 0.2 0.1 0.5 0 0.2 0 0.4 0 0.1 0 0.3 0 0.1-0.1 0.2 0 0.1 0 0.2-0.1 0.1-0.2 0.2 0.1 0.4 0.2 0.8 0 0.4 0 0.9 0.1 0.1 0.1 0.3 0 0.2 0.1 0.4 0 0.2 0 0.4 0 0.1 0 0.2 0 0.2 0 0.3-0.1 0.2-0.1 0.4 0 0.1 0.1 0.3 0 0.1 0.2 0.1 0.1 0 0.2 0 0.1-0.1 0.2-0.1 0.2-0.1 0.3-0.2 0.1 0 0.4 0 0.3 0 0.5 0 0.3 0.1 0.6 0.1 0.2 0 0.4 0 0.2-0.1 0.4-0.1 0.2-0.1 0.4-0.1 0.2 0 0.4 0 0.5 0 0.8 0.2 0.3 0.3 0.3 0.7zm-6.3-13.3q0-0.1-0.1-0.1 0-0.1-0.1-0.1-0.1 0-0.1 0.1-0.1 0-0.1 0.1l0.1 0.1q0 0 0.1 0 0.1 0 0.1 0 0.1-0.1 0.1-0.1zm0.7 3q0-0.1-0.1-0.2 0-0.1-0.1-0.1-0.1 0-0.1 0 0 0-0.1 0v0.5q0.1 0 0.2 0 0.1 0 0.1-0.1 0.1-0.1 0.1-0.1zm17.7 6.2q0 0.1 0 0.3-0.1 0.1-0.1 0.2-0.1 0.1-0.1 0.2-0.1 0-0.1 0 0 0.2 0.1 0.3 0.1 0.1 0.1 0.2 0 0.1-0.1 0.1 0 0-0.1 0-0.1 0-0.2 0 0.1 0.2 0.1 0.4 0 0.2 0 0.4 0 0.3-0.1 0.4 0 0.1-0.1 0.1 0 0-0.1 0.1-0.1 0-0.1 0.2 0 0.1-0.1 0.2-0.1 0.2-0.3 0.3-0.2 0.2-0.4 0.3-0.2 0.1-0.3 0.1-0.1 0-0.1 0 0 0.1 0 0.1 0 0.1 0 0.2 0 0.2-0.1 0.2-0.1 0.1-0.2 0.1-0.1 0.1-0.3 0.2-0.2 0.2-0.4 0.3-0.2 0.2-0.4 0.3-0.1 0.1-0.3 0.1-0.2 0-0.4-0.1-0.1-0.1-0.3-0.1-0.2 0-0.3 0.1-0.1 0-0.2 0.1-0.1 0-0.2 0.1-0.1 0-0.3 0-0.3 0-0.6-0.1-0.2-0.1-0.5-0.2-0.1-0.1-0.3-0.1-0.2 0-0.4-0.1-0.1 0-0.3-0.1-0.1 0-0.2-0.2-0.3-0.3-0.6-0.4-0.3-0.2-0.6-0.4-0.3-0.1-0.6-0.3-0.3-0.2-0.5-0.5-0.2-0.2-0.4-0.5-0.2-0.2-0.4-0.5-0.1-0.3-0.3-0.6-0.1-0.3-0.1-0.6 0-0.2 0.1-0.4 0-0.2 0.1-0.4 0-0.3 0-0.5 0.1-0.2 0.1-0.4v-0.1q0 0 0-0.1-0.1 0-0.1-0.1 0 0-0.1-0.1 0 0 0 0-0.1 0-0.1 0 0.1-0.1 0.1-0.3 0.1-0.2 0.1-0.4 0.1-0.2 0.1-0.4 0.1-0.2 0.2-0.2 0-0.1 0.1-0.1 0.1-0.1 0.1-0.2 0-0.1-0.1-0.2 0-0.1 0-0.2 0-0.1 0.1-0.1 0-0.1 0.1-0.1 0 0 0.1 0 0 0 0.1-0.1 0.1-0.2 0.2-0.3 0.1-0.2 0.2-0.3 0.1-0.2 0.2-0.3 0.2-0.1 0.4-0.2 0.1-0.1 0.3-0.3 0.2-0.1 0.3-0.2 0.2-0.2 0.4-0.3 0.2-0.1 0.4-0.1 0.3 0 0.6-0.1 0.2-0.1 0.5-0.1 0.5-0.1 0.9-0.2 0.4 0 0.9 0 0.3 0 0.6 0.1 0.4 0 0.7 0.2 0.4 0.1 0.8 0.3 0.3 0.1 0.5 0.3 0 0.2-0.1 0.3 0 0.2 0 0.3 0 0 0 0.1 0 0 0 0 0.2 0 0.3-0.1 0.2 0 0.4 0 0 0.2 0.2 0.2 0.1 0.1 0.3 0.2 0.1 0 0.2 0.2 0.1 0.2 0.2 0.4 0.1 0.2 0.2 0.4 0.1 0.2 0.2 0.3 0.1 0.1 0.1 0.3 0.1 0.2 0.2 0.4 0 0.2 0 0.4 0 0.2 0 0.3 0 0.2 0 0.4-0.1 0.1-0.2 0.2-0.1 0.2-0.2 0.3-0.1 0.1-0.1 0.2 0 0.1 0.1 0.1 0 0.1 0 0.1 0.1 0 0.1 0 0.1 0 0.1 0v-0.1q0 0-0.1-0.1 0-0.1 0-0.2 0 0 0-0.1 0 0 0 0 0.1 0 0.2 0.1 0 0 0.1 0.1 0.1 0.1 0.1 0.2 0 0.1 0 0 0 0.1 0 0.1 0 0.1 0 0.1zm-1.1 0.1q0-0.2-0.1-0.2-0.1-0.1-0.3-0.1-0.1 0-0.3 0-0.2 0-0.2-0.2v-0.1q0-0.2-0.1-0.5 0-0.3-0.1-0.7-0.1-0.3-0.2-0.6-0.1-0.3-0.2-0.6-0.1-0.2-0.1-0.4-0.1-0.1-0.1-0.1-0.1 0-0.1 0-0.2 0-0.4-0.1-0.1-0.1-0.3-0.1-0.1-0.1-0.4-0.2-0.2-0.1-0.6-0.1-0.5 0-0.9 0-0.4-0.1-0.9-0.1-0.6 0-1.1 0.3-0.6 0.2-1 0.7-0.4 0.4-0.6 1-0.2 0.6-0.2 1.1 0 0.3 0 0.6 0 0.3 0 0.6 0.1 0.3 0.2 0.6 0.1 0.3 0.3 0.4v0.3q0 0.1 0.1 0.1 0 0 0.1 0 0.1 0 0.1 0 0.1 0 0.1 0.1 0.2 0.4 0.4 0.6 0.2 0.2 0.5 0.3 0.3 0.2 0.5 0.3 0.3 0.2 0.5 0.5 0.1-0.1 0.2-0.1 0.1 0 0.2 0 0.3 0 0.6 0.1 0.4 0 0.7 0 0.4 0 0.7-0.2 0.2-0.1 0.5-0.4 0.1-0.2 0.2-0.3 0.1-0.2 0.2-0.3 0.1-0.1 0.3-0.2 0.1-0.1 0.3-0.2 0.1-0.1 0.1-0.1 0.1-0.1 0.2-0.2 0.1 0 0.2-0.1 0.1-0.1 0.1-0.2 0-0.1-0.1-0.2 0-0.1 0-0.2 0-0.1 0-0.2 0.1-0.2 0.1-0.3 0.1-0.2 0.2-0.2 0.1-0.1 0.3-0.1 0.1 0 0.2 0 0.1 0.1 0.2 0.1 0-0.1 0-0.1zm12.8 6.1q0-0.4-0.1-0.5-0.2-0.2-0.5-0.3-0.2-0.1-0.5-0.1-0.3-0.1-0.5-0.1v-0.1q-0.6-0.1-1.2-0.3-0.6-0.1-1.2-0.1 0 0-0.1 0 0 0-0.2-0.2-0.1 0-0.2 0.1 0 0-0.1 0.1-0.1 0-0.1 0.1-0.1 0-0.2 0-0.1 0-0.2 0-0.1-0.1-0.2-0.1-0.3 0-0.5 0.1-0.2 0.1-0.5 0.2-0.2 0-0.4 0.1-0.2 0.1-0.5 0.1-0.1 0-0.3 0.1-0.2 0.1-0.4 0.3-0.1 0.2-0.3 0.4-0.1 0.2-0.1 0.3 0 0.4 0.1 0.6 0.1 0.3 0.3 0.5 0.2 0.2 0.4 0.4 0.3 0.1 0.7 0.1 0.1 0 0.2 0 0.1 0 0.2 0.1 0.4 0.3 0.9 0.3 0.4 0.1 0.9 0.1 0.3 0 0.5-0.1 0.3-0.2 0.5-0.2 0.3-0.1 0.6-0.1 0.3 0 0.5-0.1 0.2-0.1 0.3-0.1 0.1-0.1 0.4-0.1 0.2 0 0.3 0 0.2 0 0.4 0 0.2 0 0.3 0 0.2-0.1 0.3-0.3 0.1-0.1 0.1-0.3 0.1-0.1 0.1-0.3v-0.1q0.2 0 0.3-0.2 0-0.2 0-0.3zm1.8 0.3q0 0.4-0.3 0.7-0.2 0.4-0.5 0.7-0.4 0.4-0.7 0.6-0.3 0.2-0.4 0.2-0.3 0-0.6 0.1-0.3 0-0.5 0.2-0.3 0.1-0.7 0.2-0.5 0.1-1 0.2-0.6 0.1-1.1 0.2-0.4 0-0.7 0-0.3 0-0.7 0-0.3 0-0.7-0.1-0.4 0-0.7-0.1-0.3-0.1-0.6-0.2-0.2-0.1-0.3-0.1-0.1-0.1-0.2-0.1-0.1-0.1-0.2-0.1-0.1-0.1-0.3-0.1-0.2 0-0.3 0-0.2-0.1-0.3-0.3-0.1-0.1-0.1-0.2-0.1-0.2-0.2-0.3-0.3-0.4-0.4-0.6-0.1-0.3-0.1-0.7 0-0.6 0.2-1.1 0.2-0.5 0.6-0.9 0-0.3-0.1-0.6 0-0.3-0.1-0.7-0.1-0.3-0.2-0.6-0.1-0.3-0.1-0.6 0-0.2 0.1-0.4 0-0.1 0.1-0.2 0.1-0.1 0.1-0.2 0.1 0 0.1-0.1 0-0.1 0.1-0.2 0.2-0.2 0.4-0.4 0.2-0.2 0.3-0.4 0.2-0.2 0.2-0.4 0-0.1-0.1-0.2-0.1-0.1-0.3-0.3-0.1-0.1-0.2-0.2-0.1-0.2-0.1-0.3 0-0.3 0-0.5 0-0.2 0.1-0.5 0-0.2 0.1-0.4 0-0.3 0-0.5 0-0.1 0-0.1 0-0.1 0-0.1 0-0.1 0-0.2 0.1-0.1 0.2-0.2 0 0 0.1-0.1 0.1-0.1 0.1-0.1 0-0.1-0.1-0.2-0.1-0.1-0.1-0.2v-0.1q0.2-0.2 0.3-0.3 0.1-0.2 0.3-0.3 0.2-0.2 0.5-0.4 0.3-0.1 0.6-0.3 0 0 0.1 0.1 0 0.1 0.1 0.1 0.1 0 0.2-0.1 0.1 0 0.3-0.1 0.2-0.1 0.4-0.2 0.2-0.1 0.5-0.1 0.1 0 0.3 0.1 0.2 0 0.4 0 0.3 0 0.6 0.1 0.2 0 0.5 0 0.2 0.1 0.4 0.3 0.2 0.1 0.4 0.5 0.1-0.1 0.3-0.2 0.1-0.1 0.3-0.2 0.1-0.1 0.2-0.2 0.1-0.1 0.2-0.2 0.1 0 0.2 0 0.1 0 0.2 0 0.1-0.1 0.2-0.1 0.1-0.1 0.3-0.2 0.2-0.1 0.4-0.1 0.4 0 0.7 0.1 0.4 0.1 0.8 0.1 0 0.3 0.1 0.5 0 0.2 0.1 0.4 0.1 0.3 0.2 0.5 0 0.2 0 0.5 0 0.1-0.1 0.3-0.2 0.2-0.4 0.4-0.3 0.2-0.6 0.3-0.2 0.1-0.5 0.1 0 0 0 0-0.1 0-0.1-0.1 0-0.1 0.1-0.2 0.1 0 0.1-0.1-0.2-0.1-0.2-0.1 0 0 0 0-0.2 0-0.3 0.1-0.1 0.1-0.2 0.2 0 0.2-0.1 0.4 0 0.1 0 0.3 0 0.2 0 0.4 0 0.2 0 0.4 0 0.2 0 0.4 0 0.2-0.2 0.4-0.2 0.2-0.3 0.4-0.1 0.3-0.3 0.5-0.1 0.2-0.2 0.5-0.1 0.2-0.4 0.4-0.1 0.1-0.2 0.2-0.1 0.1-0.1 0.1-0.1 0-0.1 0 0 0 0 0-0.3 0-0.6 0.1-0.2 0.1-0.5 0.2-0.3 0.1-0.6 0.2-0.2 0-0.5 0-0.5 0-0.9-0.1-0.4-0.1-0.9-0.1-0.2 0-0.5 0.1-0.2 0.1-0.5 0.3-0.2 0.1-0.4 0.3-0.1 0.2-0.1 0.5 0 0.1 0 0.3 0.1 0.1 0.2 0.3 0.1 0.1 0.2 0.2 0.2 0.1 0.4 0.1 0.1 0 0.3-0.1 0.2-0.1 0.4-0.1 0.1 0 0.2 0.1 0 0 0.1 0 0 0 0.1-0.1 0 0 0.1 0 0.1 0 0.1 0.1 0.1 0 0.2 0 0.1 0 0.2-0.1 0 0 0.1 0 0.2 0 0.3 0 0.1 0.1 0.2 0.1 0.1 0.1 0.2 0.1 0.1 0.1 0.2 0.1 0.1 0 0.2-0.1 0 0 0.1-0.1 0.1 0 0.2-0.1 0.1 0 0.2 0 0.2 0 0.3 0 0.1 0 0.2 0 0.1 0 0.3-0.1 0.1-0.1 0.3-0.1 0.1 0 0.2 0.1 0.1 0 0.2 0.1 0.1 0 0.3 0.1 0.1 0 0.4 0 0.2 0 0.3 0.1 0.2 0 0.4 0.1 0.1 0.1 0.3 0.1 0.2 0.1 0.3 0.2 0.2 0 0.3 0.1 0.1 0 0.2 0.1 0 0 0.1 0.1 0.1 0.1 0.2 0.2 0.2 0.2 0.3 0.2 0.2 0.1 0.3 0.2 0.1 0 0.2 0.2 0.1 0.1 0.2 0.3 0 0.3 0.1 0.5 0.1 0.3 0.1 0.5zm-2.9-10.7v-0.1q0-0.1-0.1-0.2-0.2-0.1-0.4-0.1-0.1 0-0.1 0-0.1 0-0.1 0.1 0 0 0.1 0.1 0.1 0 0.1 0.1 0.1 0.1 0.2 0.1 0 0 0.1 0 0.1 0 0.2 0zm-1 2.2q0-0.2-0.1-0.5-0.1-0.3-0.3-0.6-0.1-0.3-0.3-0.5-0.2-0.2-0.5-0.3l-1.2-0.4q-0.1 0-0.2 0 0 0-0.1 0 0 0.1-0.1 0.1-0.1 0-0.2 0-0.1 0-0.2 0-0.1-0.1-0.3-0.1-0.1 0-0.2 0.1 0 0-0.1 0.1-0.1 0.1-0.2 0.1 0 0.1-0.1 0.1 0 0-0.1 0-0.1 0.1-0.1 0.1-0.1 0.1-0.2 0.3-0.1 0.3-0.3 0.6-0.1 0.3-0.1 0.6-0.1 0.2-0.1 0.3 0 0.1 0.1 0.2 0 0.2 0.1 0.4 0.1 0.2 0.2 0.4 0.2 0.2 0.3 0.4 0.1 0.2 0.2 0.4 0.1 0.1 0.1 0.2 0.2 0.2 0.3 0.2 0.2 0.1 0.4 0.1 0.1 0 0.3 0 0.2-0.1 0.3-0.1 0.2 0 0.3 0.1 0.1 0 0.2 0 0.4 0 0.8-0.2 0.3-0.3 0.7-0.6 0.3-0.4 0.5-0.8 0.2-0.4 0.2-0.7zm8.9-5.6q0 0.3 0 0.5 0 0.2-0.1 0.3 0 0.1-0.1 0.2 0 0.1 0 0.2 0 0.1 0 0.2 0 0.1 0 0.2 0 0.2 0 0.3-0.1 0.1-0.1 0.2-0.1 0.3-0.1 0.6 0 0.3 0 0.6 0 0.3-0.1 0.5 0 0.3-0.1 0.6 0 0.1 0.1 0.2 0 0.1 0 0.2 0 0.1-0.1 0.4 0 0.3-0.1 0.6-0.1 0.3-0.1 0.6 0 0.2 0 0.3 0 0.2 0 0.3 0.1 0.1 0.1 0.1 0 0.2-0.1 0.4-0.1 0.2-0.2 0.4-0.1 0.2-0.3 0.3-0.1 0.1-0.2 0.1-0.1 0-0.2-0.1-0.1-0.1-0.2-0.2-0.1-0.1-0.1-0.3-0.1-0.2-0.1-0.4 0-0.1 0-0.3 0.1-0.1 0.1-0.3 0-0.3-0.1-0.6-0.1-0.2-0.1-0.5 0-0.2 0-0.3-0.1-0.2-0.1-0.3v-0.7q0-0.4-0.1-0.8-0.1-0.4-0.1-0.8-0.1-0.6-0.1-1.1 0-0.5 0-1.1 0-0.3-0.1-0.7 0-0.3 0-0.7 0-0.1 0-0.2 0-0.1 0-0.2 0-0.1 0.1-0.1 0-0.1 0-0.2 0.2-0.5 0.2-0.8 0.1-0.3 0.3-0.4 0.1-0.2 0.3-0.3 0.2 0 0.5 0 0.2 0 0.3 0.1 0.1 0.1 0.2 0.2 0.1 0 0.1 0 0.1 0 0.2 0.1 0.1 0.1 0.2 0.2 0 0.1 0.1 0.3 0.1 0.2 0.1 0.3 0.1 0.2 0.1 0.4 0 0.1-0.1 0.3 0 0.1 0 0.3 0 0.2 0.1 0.4 0 0.2 0 0.5zm-0.4 11q0 0.3-0.1 0.5-0.1 0.2-0.3 0.4-0.2 0.2-0.4 0.3-0.3 0.1-0.5 0.1-0.3 0-0.5-0.1-0.2-0.1-0.4-0.3-0.2-0.2-0.3-0.4 0-0.2 0-0.5 0-0.6 0.4-1 0.4-0.3 1-0.3 0.3 0 0.5 0.1 0.2 0.1 0.3 0.3 0.2 0.2 0.2 0.4 0.1 0.3 0.1 0.5z"/>
</svg>